C:\GBW_MyPrograms\PredSimResults\gait1018\gait1018_v26.mot
version=1
nRows=13
nColumns=29
inDegrees=yes
endheader
                time	         pelvis_tilt	           pelvis_tx	           pelvis_ty	       hip_flexion_l	       hip_flexion_r	        knee_angle_l	        knee_angle_r	       ankle_angle_l	       ankle_angle_r	    lumbar_extension	hamstrings_r/activation	bifemsh_r/activation	glut_max_r/activation	iliopsoas_r/activation	rect_fem_r/activation	  vasti_r/activation	gastroc_r/activation	 soleus_r/activation	tib_ant_r/activation	hamstrings_l/activation	bifemsh_l/activation	glut_max_l/activation	iliopsoas_l/activation	rect_fem_l/activation	  vasti_l/activation	gastroc_l/activation	 soleus_l/activation	tib_ant_l/activation	
          1.01569202	         -7.20713978	          1.26961502	          0.88883572	         -8.02310944	         33.38980228	        -14.91216209	        -14.94560844	          7.89595684	         10.40746531	          0.11869769	          0.20093233	          0.05000025	          0.08768329	          0.05479921	          0.05846444	          0.05000002	          0.05921256	          0.05178731	          0.22194869	          0.05000001	          0.05000045	          0.05000007	          0.58587530	          0.24063877	          0.07876146	          0.28982722	          0.31706621	          0.05000000	
          1.02584894	         -7.25601209	          1.28560066	          0.88795062	         -8.48329171	         32.76148368	        -15.72058316	        -14.62673947	          6.62404162	         10.23355071	          0.55194162	          0.18245817	          0.05000054	          0.09442357	          0.05000004	          0.05000036	          0.06590723	          0.05196972	          0.05000001	          0.25119609	          0.05000000	          0.05000096	          0.05000002	          0.50105563	          0.20580047	          0.06735910	          0.25826861	          0.27753300	          0.05000000	
          1.03600586	         -7.30367400	          1.30181716	          0.88705567	         -8.74242959	         32.14068707	        -16.89679895	        -15.07564096	          5.24085334	          9.88433408	          1.01403862	          0.15604292	          0.05000135	          0.14543787	          0.05000001	          0.05000001	          0.12412973	          0.05860472	          0.05689576	          0.22426761	          0.05061337	          0.05000053	          0.05000036	          0.42851566	          0.17600585	          0.05760766	          0.22087795	          0.23735335	          0.05000000	
          1.04616278	         -7.35344431	          1.31806512	          0.88634504	         -8.74943886	         31.47766909	        -18.47316018	        -15.70953460	          3.63977043	          9.60863581	          1.48352915	          0.13345192	          0.06836122	          0.16912217	          0.05000001	          0.05000001	          0.18406821	          0.05012028	          0.05000001	          0.28265778	          0.05000003	          0.05000017	          0.09346456	          0.36647763	          0.15052475	          0.05667144	          0.18890050	          0.20299068	          0.05000000	
          1.05631970	         -7.40911935	          1.33405274	          0.88608493	         -8.47589629	         30.85752895	        -20.41115558	        -16.37081245	          1.67298754	          9.31848039	          1.92768721	          0.11413151	          0.05846432	          0.20299310	          0.05000000	          0.05000003	          0.25707554	          0.05000005	          0.05000006	          0.29582784	          0.05000001	          0.05000013	          0.07993330	          0.31342114	          0.14223183	          0.05700876	          0.16155256	          0.17360285	          0.05000000	
          1.06647662	         -7.47180426	          1.34961099	          0.88637999	         -7.92008879	         30.30628402	        -22.68062305	        -17.09655343	         -0.58402871	          9.12227013	          2.32702356	          0.10080850	          0.05000042	          0.23772511	          0.05000000	          0.05000001	          0.32589061	          0.05000002	          0.05000006	          0.31393548	          0.05000003	          0.05000010	          0.06836102	          0.26804585	          0.12164035	          0.05466680	          0.13816390	          0.14846961	          0.23334917	
          1.07663354	         -7.54066881	          1.36463963	          0.88706091	         -7.13722463	         29.75591222	        -25.19753531	        -17.75191025	         -2.26123495	          8.99331401	          2.66859714	          0.08621403	          0.05000007	          0.24464218	          0.05000000	          0.05000002	          0.37017366	          0.05000002	          0.05000007	          0.32472134	          0.05000001	          0.05000013	          0.05846411	          0.23528438	          0.12766682	          0.05000001	          0.11816131	          0.12697503	          0.20378945	
          1.08679046	         -7.61554145	          1.37913959	          0.88803780	         -6.20676590	         29.15076198	        -27.71493491	        -18.24403653	         -2.65854347	          8.95287658	          2.95298315	          0.08275357	          0.05000018	          0.22731700	          0.05000001	          0.05000002	          0.38195260	          0.05000002	          0.05374575	          0.32607460	          0.05000003	          0.05452897	          0.05000002	          0.20650312	          0.10918400	          0.05000000	          0.10105459	          0.10859231	          0.24395763	
          1.09694738	         -7.69441835	          1.39317275	          0.88933232	         -5.15271122	         28.47371966	        -30.16132947	        -18.55453911	         -2.48712077	          8.99331908	          3.18637752	          0.08158982	          0.05000016	          0.20463906	          0.05000001	          0.05000003	          0.37279138	          0.05000003	          0.06157605	          0.32031330	          0.05000003	          0.07754669	          0.05000001	          0.17870337	          0.11403000	          0.05000000	          0.08642449	          0.09287093	          0.25269384	
          1.10710430	         -7.77560945	          1.40679444	          0.89091041	         -3.99637373	         27.73750439	        -32.49465498	        -18.71304747	         -2.10096176	          9.09063296	          3.37421198	          0.08445348	          0.05000014	          0.18858948	          0.05000000	          0.05000002	          0.35172575	          0.05000002	          0.06896113	          0.31341772	          0.05103584	          0.10148759	          0.05000001	          0.15283215	          0.15466728	          0.05000000	          0.07391250	          0.07942561	          0.24063195	
          1.11726122	         -7.85728884	          1.42006688	          0.89270555	         -2.76743015	         26.95486386	        -34.66178009	        -18.75022618	         -1.56993961	          9.22225138	          3.52239146	          0.08475140	          0.05000013	          0.17329872	          0.05000000	          0.05000002	          0.32486422	          0.05000002	          0.07755907	          0.30672393	          0.05889564	          0.12470168	          0.05000001	          0.13525259	          0.18692616	          0.05000000	          0.06681455	          0.06792682	          0.22477661	
          1.12741814	         -7.93755094	          1.43304663	          0.89463951	         -1.48934117	         26.13782624	        -36.62626309	        -18.69642182	         -0.94106188	          9.37933305	          3.63583017	          0.08487937	          0.05000012	          0.16047050	          0.05000000	          0.05000002	          0.29819667	          0.05000002	          0.08868474	          0.29519570	          0.06593908	          0.15048907	          0.05000000	          0.12542452	          0.21302534	          0.05000000	          0.06106642	          0.05809277	          0.20779326	
          1.13757506	         -8.01470777	          1.44577551	          0.89663776	         -0.17365964	         25.29632771	        -38.38099864	        -18.57630469	         -0.27259905	          9.55528607	          3.71773152	          0.08408221	          0.05000010	          0.14989711	          0.05000000	          0.05000003	          0.27350995	          0.05000002	          0.09980606	          0.28314329	          0.06974344	          0.17579238	          0.05000000	          0.11895377	          0.23149590	          0.05000000	          0.05845919	          0.05000000	          0.19229825	
